<svg width="1600" height="818" viewBox="0 0 1600 818" fill="none" xmlns="http://www.w3.org/2000/svg">
<rect opacity="0.32" width="1600" height="818" fill="url(#paint0_linear_518_2)"/>
<g opacity="0.09">
<path d="M808.419 98.0217H751.382L722.836 147.418L751.382 196.814H808.419L836.965 147.418L808.419 98.0217Z" stroke="#8072C9" stroke-miterlimit="10" style="mix-blend-mode:color-dodge"/>
</g>
<g opacity="0.09">
<path d="M808.419 98.0217H751.382L722.836 147.418L751.382 196.814H808.419L836.965 147.418L808.419 98.0217Z" stroke="#8072C9" stroke-miterlimit="10" style="mix-blend-mode:color-dodge"/>
</g>
<g opacity="0.09">
<path d="M884.506 63.5264H827.468L798.977 112.977L827.468 162.373H884.506L913.052 112.977L884.506 63.5264Z" stroke="#8072C9" stroke-miterlimit="10" style="mix-blend-mode:color-dodge"/>
</g>
<g opacity="0.09">
<path d="M884.506 63.5264H827.468L798.977 112.977L827.468 162.373H884.506L913.052 112.977L884.506 63.5264Z" stroke="#8072C9" stroke-miterlimit="10" style="mix-blend-mode:color-dodge"/>
</g>
<g opacity="0.09">
<path d="M730.914 63.5264H673.822L645.33 112.977L673.822 162.373H730.914L759.405 112.977L730.914 63.5264Z" stroke="#8072C9" stroke-miterlimit="10" style="mix-blend-mode:color-dodge"/>
</g>
<g opacity="0.09">
<path d="M730.914 63.5264H673.822L645.33 112.977L673.822 162.373H730.914L759.405 112.977L730.914 63.5264Z" stroke="#8072C9" stroke-miterlimit="10" style="mix-blend-mode:color-dodge"/>
</g>
<g opacity="0.09">
<path d="M749.885 147.418L764.879 121.391H794.922L809.97 147.418L794.922 173.444H764.879L749.885 147.418Z" stroke="#8072C9" style="mix-blend-mode:color-dodge"/>
</g>
<g opacity="0.09">
<path d="M808.419 -13.4336H751.382L722.836 35.9626L751.382 85.3588H808.419L836.965 35.9626L808.419 -13.4336Z" stroke="#8072C9" stroke-miterlimit="10" style="mix-blend-mode:color-dodge"/>
</g>
<g opacity="0.09">
<path d="M808.419 -13.4336H751.382L722.836 35.9626L751.382 85.3588H808.419L836.965 35.9626L808.419 -13.4336Z" stroke="#8072C9" stroke-miterlimit="10" style="mix-blend-mode:color-dodge"/>
</g>
<g opacity="0.09">
<path d="M884.506 -47.8745H827.468L798.977 1.52168L827.468 50.9179H884.506L913.052 1.52168L884.506 -47.8745Z" stroke="#8072C9" stroke-miterlimit="10" style="mix-blend-mode:color-dodge"/>
</g>
<g opacity="0.09">
<path d="M884.506 -47.8745H827.468L798.977 1.52168L827.468 50.9179H884.506L913.052 1.52168L884.506 -47.8745Z" stroke="#8072C9" stroke-miterlimit="10" style="mix-blend-mode:color-dodge"/>
</g>
<g opacity="0.09">
<path d="M730.914 -47.8745H673.822L645.33 1.52168L673.822 50.9179H730.914L759.405 1.52168L730.914 -47.8745Z" stroke="#8072C9" stroke-miterlimit="10" style="mix-blend-mode:color-dodge"/>
</g>
<g opacity="0.09">
<path d="M730.914 -47.8745H673.822L645.33 1.52168L673.822 50.9179H730.914L759.405 1.52168L730.914 -47.8745Z" stroke="#8072C9" stroke-miterlimit="10" style="mix-blend-mode:color-dodge"/>
</g>
<g opacity="0.09">
<path d="M749.885 35.9626L764.879 9.93604H794.922L809.97 35.9626L794.922 61.9892H764.879L749.885 35.9626Z" stroke="#8072C9" style="mix-blend-mode:color-dodge"/>
</g>
<g opacity="0.09">
<path d="M671.038 21.6621H632.231L612.854 55.2843L632.231 88.8519H671.038L690.414 55.2843L671.038 21.6621Z" stroke="#8072C9" stroke-width="0.7" stroke-miterlimit="10" style="mix-blend-mode:color-dodge"/>
</g>
<g opacity="0.09">
<path d="M671.038 21.6621H632.231L612.854 55.2843L632.231 88.8519H671.038L690.414 55.2843L671.038 21.6621Z" stroke="#8072C9" stroke-width="0.7" stroke-miterlimit="10" style="mix-blend-mode:color-dodge"/>
</g>
<g opacity="0.09">
<path d="M722.727 -1.75317H683.974L664.543 31.869L683.974 65.4366H722.727L742.158 31.869L722.727 -1.75317Z" stroke="#8072C9" stroke-width="0.7" stroke-miterlimit="10" style="mix-blend-mode:color-dodge"/>
</g>
<g opacity="0.09">
<path d="M722.727 -1.75317H683.974L664.543 31.869L683.974 65.4366H722.727L742.158 31.869L722.727 -1.75317Z" stroke="#8072C9" stroke-width="0.7" stroke-miterlimit="10" style="mix-blend-mode:color-dodge"/>
</g>
<g opacity="0.09">
<path d="M618.312 -1.75317H579.559L560.128 31.869L579.559 65.4366H618.312L637.689 31.869L618.312 -1.75317Z" stroke="#8072C9" stroke-width="0.7" stroke-miterlimit="10" style="mix-blend-mode:color-dodge"/>
</g>
<g opacity="0.09">
<path d="M618.312 -1.75317H579.559L560.128 31.869L579.559 65.4366H618.312L637.689 31.869L618.312 -1.75317Z" stroke="#8072C9" stroke-width="0.7" stroke-miterlimit="10" style="mix-blend-mode:color-dodge"/>
</g>
<g opacity="0.09">
<path d="M631.389 55.2838L641.525 37.7178H661.743L671.88 55.2839L661.744 72.7961H641.525L631.389 55.2838Z" stroke="#8072C9" style="mix-blend-mode:color-dodge"/>
</g>
<g opacity="0.09">
<path d="M926.752 21.6621H887.944L868.568 55.2843L887.944 88.8519H926.752L946.128 55.2843L926.752 21.6621Z" stroke="#8072C9" stroke-width="0.7" stroke-miterlimit="10" style="mix-blend-mode:color-dodge"/>
</g>
<g opacity="0.09">
<path d="M926.752 21.6621H887.944L868.568 55.2843L887.944 88.8519H926.752L946.128 55.2843L926.752 21.6621Z" stroke="#8072C9" stroke-width="0.7" stroke-miterlimit="10" style="mix-blend-mode:color-dodge"/>
</g>
<g opacity="0.09">
<path d="M978.441 -1.75317H939.688L920.311 31.869L939.688 65.4366H978.441L997.872 31.869L978.441 -1.75317Z" stroke="#8072C9" stroke-width="0.7" stroke-miterlimit="10" style="mix-blend-mode:color-dodge"/>
</g>
<g opacity="0.09">
<path d="M978.441 -1.75317H939.688L920.311 31.869L939.688 65.4366H978.441L997.872 31.869L978.441 -1.75317Z" stroke="#8072C9" stroke-width="0.7" stroke-miterlimit="10" style="mix-blend-mode:color-dodge"/>
</g>
<g opacity="0.09">
<path d="M874.026 -1.75317H835.273L815.842 31.869L835.273 65.4366H874.026L893.457 31.869L874.026 -1.75317Z" stroke="#8072C9" stroke-width="0.7" stroke-miterlimit="10" style="mix-blend-mode:color-dodge"/>
</g>
<g opacity="0.09">
<path d="M874.026 -1.75317H835.273L815.842 31.869L835.273 65.4366H874.026L893.457 31.869L874.026 -1.75317Z" stroke="#8072C9" stroke-width="0.7" stroke-miterlimit="10" style="mix-blend-mode:color-dodge"/>
</g>
<g opacity="0.09">
<path d="M887.103 55.2839L897.239 37.7178H917.457L927.593 55.2839L917.458 72.7961H897.239L887.103 55.2839Z" stroke="#8072C9" style="mix-blend-mode:color-dodge"/>
</g>
<mask id="mask0_518_2" style="mask-type:alpha" maskUnits="userSpaceOnUse" x="0" y="0" width="1600" height="818">
<rect width="1600" height="818" fill="url(#paint1_linear_518_2)"/>
</mask>
<g mask="url(#mask0_518_2)">
<g opacity="0.09">
<path d="M809.347 766.016H752.31L723.764 815.412L752.31 864.808H809.347L837.893 815.412L809.347 766.016Z" stroke="#8072C9" stroke-miterlimit="10" style="mix-blend-mode:color-dodge"/>
</g>
<g opacity="0.09">
<path d="M809.347 766.016H752.31L723.764 815.412L752.31 864.808H809.347L837.893 815.412L809.347 766.016Z" stroke="#8072C9" stroke-miterlimit="10" style="mix-blend-mode:color-dodge"/>
</g>
<g opacity="0.09">
<path d="M885.434 731.521H828.396L799.905 780.971L828.396 830.368H885.434L913.98 780.971L885.434 731.521Z" stroke="#8072C9" stroke-miterlimit="10" style="mix-blend-mode:color-dodge"/>
</g>
<g opacity="0.09">
<path d="M885.434 731.521H828.396L799.905 780.971L828.396 830.368H885.434L913.98 780.971L885.434 731.521Z" stroke="#8072C9" stroke-miterlimit="10" style="mix-blend-mode:color-dodge"/>
</g>
<g opacity="0.09">
<path d="M731.842 731.521H674.749L646.258 780.971L674.749 830.368H731.842L760.333 780.971L731.842 731.521Z" stroke="#8072C9" stroke-miterlimit="10" style="mix-blend-mode:color-dodge"/>
</g>
<g opacity="0.09">
<path d="M731.842 731.521H674.749L646.258 780.971L674.749 830.368H731.842L760.333 780.971L731.842 731.521Z" stroke="#8072C9" stroke-miterlimit="10" style="mix-blend-mode:color-dodge"/>
</g>
<g opacity="0.09">
<path d="M750.813 815.412L765.807 789.386H795.85L810.898 815.412L795.85 841.439H765.807L750.813 815.412Z" stroke="#8072C9" style="mix-blend-mode:color-dodge"/>
</g>
<g opacity="0.09">
<path d="M809.347 654.561H752.31L723.764 703.957L752.31 753.353H809.347L837.893 703.957L809.347 654.561Z" stroke="#8072C9" stroke-miterlimit="10" style="mix-blend-mode:color-dodge"/>
</g>
<g opacity="0.09">
<path d="M809.347 654.561H752.31L723.764 703.957L752.31 753.353H809.347L837.893 703.957L809.347 654.561Z" stroke="#8072C9" stroke-miterlimit="10" style="mix-blend-mode:color-dodge"/>
</g>
<g opacity="0.09">
<path d="M885.434 620.12H828.396L799.905 669.516L828.396 718.912H885.434L913.98 669.516L885.434 620.12Z" stroke="#8072C9" stroke-miterlimit="10" style="mix-blend-mode:color-dodge"/>
</g>
<g opacity="0.09">
<path d="M885.434 620.12H828.396L799.905 669.516L828.396 718.912H885.434L913.98 669.516L885.434 620.12Z" stroke="#8072C9" stroke-miterlimit="10" style="mix-blend-mode:color-dodge"/>
</g>
<g opacity="0.09">
<path d="M731.842 620.12H674.749L646.258 669.516L674.749 718.912H731.842L760.333 669.516L731.842 620.12Z" stroke="#8072C9" stroke-miterlimit="10" style="mix-blend-mode:color-dodge"/>
</g>
<g opacity="0.09">
<path d="M731.842 620.12H674.749L646.258 669.516L674.749 718.912H731.842L760.333 669.516L731.842 620.12Z" stroke="#8072C9" stroke-miterlimit="10" style="mix-blend-mode:color-dodge"/>
</g>
<g opacity="0.09">
<path d="M750.813 703.957L765.807 677.93H795.85L810.898 703.957L795.85 729.984H765.807L750.813 703.957Z" stroke="#8072C9" style="mix-blend-mode:color-dodge"/>
</g>
<g opacity="0.09">
<path d="M671.966 689.657H633.158L613.782 723.279L633.158 756.846H671.966L691.342 723.279L671.966 689.657Z" stroke="#8072C9" stroke-width="0.7" stroke-miterlimit="10" style="mix-blend-mode:color-dodge"/>
</g>
<g opacity="0.09">
<path d="M671.966 689.657H633.158L613.782 723.279L633.158 756.846H671.966L691.342 723.279L671.966 689.657Z" stroke="#8072C9" stroke-width="0.7" stroke-miterlimit="10" style="mix-blend-mode:color-dodge"/>
</g>
<g opacity="0.09">
<path d="M723.654 666.241H684.902L665.471 699.863L684.902 733.431H723.654L743.085 699.863L723.654 666.241Z" stroke="#8072C9" stroke-width="0.7" stroke-miterlimit="10" style="mix-blend-mode:color-dodge"/>
</g>
<g opacity="0.09">
<path d="M723.654 666.241H684.902L665.471 699.863L684.902 733.431H723.654L743.085 699.863L723.654 666.241Z" stroke="#8072C9" stroke-width="0.7" stroke-miterlimit="10" style="mix-blend-mode:color-dodge"/>
</g>
<g opacity="0.09">
<path d="M619.24 666.241H580.487L561.056 699.863L580.487 733.431H619.24L638.616 699.863L619.24 666.241Z" stroke="#8072C9" stroke-width="0.7" stroke-miterlimit="10" style="mix-blend-mode:color-dodge"/>
</g>
<g opacity="0.09">
<path d="M619.24 666.241H580.487L561.056 699.863L580.487 733.431H619.24L638.616 699.863L619.24 666.241Z" stroke="#8072C9" stroke-width="0.7" stroke-miterlimit="10" style="mix-blend-mode:color-dodge"/>
</g>
<g opacity="0.09">
<path d="M632.317 723.278L642.453 705.712H662.671L672.807 723.278L662.671 740.791H642.453L632.317 723.278Z" stroke="#8072C9" style="mix-blend-mode:color-dodge"/>
</g>
<g opacity="0.09">
<path d="M927.68 689.657H888.872L869.496 723.279L888.872 756.846H927.68L947.056 723.279L927.68 689.657Z" stroke="#8072C9" stroke-width="0.7" stroke-miterlimit="10" style="mix-blend-mode:color-dodge"/>
</g>
<g opacity="0.09">
<path d="M927.68 689.657H888.872L869.496 723.279L888.872 756.846H927.68L947.056 723.279L927.68 689.657Z" stroke="#8072C9" stroke-width="0.7" stroke-miterlimit="10" style="mix-blend-mode:color-dodge"/>
</g>
<g opacity="0.09">
<path d="M979.368 666.241H940.616L921.239 699.863L940.616 733.431H979.368L998.799 699.863L979.368 666.241Z" stroke="#8072C9" stroke-width="0.7" stroke-miterlimit="10" style="mix-blend-mode:color-dodge"/>
</g>
<g opacity="0.09">
<path d="M979.368 666.241H940.616L921.239 699.863L940.616 733.431H979.368L998.799 699.863L979.368 666.241Z" stroke="#8072C9" stroke-width="0.7" stroke-miterlimit="10" style="mix-blend-mode:color-dodge"/>
</g>
<g opacity="0.09">
<path d="M874.954 666.241H836.201L816.77 699.863L836.201 733.431H874.954L894.385 699.863L874.954 666.241Z" stroke="#8072C9" stroke-width="0.7" stroke-miterlimit="10" style="mix-blend-mode:color-dodge"/>
</g>
<g opacity="0.09">
<path d="M874.954 666.241H836.201L816.77 699.863L836.201 733.431H874.954L894.385 699.863L874.954 666.241Z" stroke="#8072C9" stroke-width="0.7" stroke-miterlimit="10" style="mix-blend-mode:color-dodge"/>
</g>
<g opacity="0.09">
<path d="M888.031 723.278L898.167 705.712H918.385L928.521 723.278L918.385 740.791H898.167L888.031 723.278Z" stroke="#8072C9" style="mix-blend-mode:color-dodge"/>
</g>
</g>
<g opacity="0.15">
<path d="M1670.1 531.02L1566.5 626.72C1563 630.02 1558.3 631.82 1553.3 631.82H1451C1445.6 631.82 1440.6 633.72 1436.8 637.22L1380.9 688.82C1377.4 692.12 1372.8 693.92 1367.8 693.92H1276.9V695.12H1367.8C1373.1 695.12 1378.1 693.22 1381.9 689.72L1437.8 638.12C1441.3 634.82 1446 633.02 1451 633.02H1553.3C1558.7 633.02 1563.7 631.12 1567.4 627.62L1670.1 532.72V531.02Z" fill="#8072C9"/>
<path d="M1276.9 698.92C1274.3 698.92 1272.2 696.92 1272.2 694.52C1272.2 692.12 1274.3 690.12 1276.9 690.12C1279.5 690.12 1281.6 692.12 1281.6 694.52C1281.6 696.92 1279.5 698.92 1276.9 698.92Z" fill="#8072C9"/>
<path d="M1670.1 562.32L1582.3 643.42C1581.2 644.42 1579.8 645.02 1578.3 645.02H1465.4C1463.6 645.02 1461.8 645.62 1460.5 646.82L1395.9 706.62C1394.8 707.62 1393.4 708.12 1391.9 708.12H1314.3V709.32H1391.9C1393.8 709.32 1395.5 708.72 1396.8 707.52L1461.5 647.72C1462.5 646.72 1463.9 646.22 1465.4 646.22H1578.3C1580.2 646.22 1581.9 645.52 1583.2 644.32L1670.1 564.02V562.32Z" fill="#8072C9"/>
<path d="M1314.3 713.12C1311.7 713.12 1309.5 711.12 1309.5 708.72C1309.5 706.32 1311.7 704.42 1314.3 704.42C1316.9 704.42 1319 706.32 1319 708.72C1319 711.12 1316.9 713.12 1314.3 713.12Z" fill="#8072C9"/>
<path d="M1670.1 575.42L1586.4 652.82C1585.4 653.82 1584 654.32 1582.5 654.32H1469.6C1467.8 654.32 1466 655.02 1464.7 656.22L1400.1 715.92C1399 716.92 1397.6 717.42 1396.1 717.42H1295.5V718.72H1396.1C1398 718.72 1399.7 718.02 1401 716.82L1465.7 657.12C1466.7 656.12 1468.1 655.62 1469.6 655.62H1582.5C1584.3 655.62 1586.1 654.92 1587.4 653.72L1670.1 577.22V575.42Z" fill="#8072C9"/>
<path d="M1295.5 722.42C1292.9 722.42 1290.8 720.52 1290.8 718.12C1290.8 715.72 1292.9 713.72 1295.5 713.72C1298.1 713.72 1300.2 715.72 1300.2 718.12C1300.2 720.52 1298.1 722.42 1295.5 722.42Z" fill="#8072C9"/>
<path d="M1670.1 587.82L1589.8 662.02C1588.8 663.02 1587.4 663.52 1585.9 663.52H1473C1471.1 663.52 1469.4 664.22 1468.1 665.42L1403.5 725.12C1402.4 726.12 1401 726.72 1399.5 726.72H1321.8V727.92H1399.5C1401.4 727.92 1403.1 727.22 1404.4 726.02L1469.1 666.32C1470.1 665.32 1471.5 664.82 1473 664.82H1585.9C1587.7 664.82 1589.5 664.12 1590.8 662.92L1670.1 589.62V587.82Z" fill="#8072C9"/>
<path d="M1321.8 731.62C1319.2 731.62 1317.1 729.72 1317.1 727.32C1317.1 724.92 1319.2 722.92 1321.8 722.92C1324.4 722.92 1326.5 724.92 1326.5 727.32C1326.5 729.72 1324.4 731.62 1321.8 731.62Z" fill="#8072C9"/>
<path d="M1670.1 601.02L1594 671.42C1592.9 672.32 1591.5 672.92 1590 672.92H1477.2C1475.3 672.92 1473.6 673.52 1472.3 674.72L1407.6 734.52C1406.6 735.52 1405.2 736.02 1403.7 736.02H1303.1V737.32H1403.7C1405.5 737.32 1407.3 736.62 1408.6 735.42L1473.2 675.62C1474.3 674.72 1475.7 674.12 1477.2 674.12H1590C1591.9 674.12 1593.6 673.52 1594.9 672.22L1670.1 602.82V601.02Z" fill="#8072C9"/>
<path d="M1303.1 741.02C1300.5 741.02 1298.4 739.02 1298.4 736.62C1298.4 734.22 1300.5 732.32 1303.1 732.32C1305.7 732.32 1307.8 734.22 1307.8 736.62C1307.8 739.02 1305.7 741.02 1303.1 741.02Z" fill="#8072C9"/>
<path d="M1670.1 383.72L1567.4 288.82C1563.7 285.32 1558.7 283.42 1553.3 283.42H1451C1446 283.42 1441.3 281.62 1437.8 278.32L1381.9 226.72C1378.1 223.22 1373.1 221.32 1367.8 221.32H1276.9V222.52H1367.8C1372.8 222.52 1377.4 224.32 1380.9 227.62L1436.8 279.22C1440.6 282.72 1445.6 284.62 1451 284.62H1553.3C1558.3 284.62 1563 286.42 1566.5 289.72L1670.1 385.42V383.72Z" fill="#8072C9"/>
<path d="M1276.9 217.52C1274.3 217.52 1272.2 219.52 1272.2 221.92C1272.2 224.32 1274.3 226.32 1276.9 226.32C1279.5 226.32 1281.6 224.32 1281.6 221.92C1281.6 219.52 1279.5 217.52 1276.9 217.52Z" fill="#8072C9"/>
<path d="M1670.1 352.42L1583.2 272.12C1581.9 270.92 1580.2 270.22 1578.3 270.22H1465.4C1463.9 270.22 1462.5 269.72 1461.5 268.72L1396.8 208.92C1395.5 207.72 1393.8 207.12 1391.9 207.12H1314.3V208.32H1391.9C1393.4 208.32 1394.8 208.82 1395.9 209.82L1460.5 269.62C1461.8 270.82 1463.6 271.42 1465.4 271.42H1578.3C1579.8 271.42 1581.2 272.02 1582.3 273.02L1670.1 354.12V352.42Z" fill="#8072C9"/>
<path d="M1314.3 203.32C1311.7 203.32 1309.5 205.32 1309.5 207.72C1309.5 210.12 1311.7 212.02 1314.3 212.02C1316.9 212.02 1319 210.12 1319 207.72C1319 205.32 1316.9 203.32 1314.3 203.32Z" fill="#8072C9"/>
<path d="M1670.1 339.22L1587.4 262.72C1586.1 261.52 1584.3 260.82 1582.5 260.82H1469.6C1468.1 260.82 1466.7 260.32 1465.7 259.32L1401 199.62C1399.7 198.42 1398 197.72 1396.1 197.72H1295.5V199.02H1396.1C1397.6 199.02 1399 199.52 1400.1 200.52L1464.7 260.22C1466 261.42 1467.8 262.12 1469.6 262.12H1582.5C1584 262.12 1585.4 262.62 1586.4 263.62L1670.1 340.92V339.22Z" fill="#8072C9"/>
<path d="M1295.5 194.02C1292.9 194.02 1290.8 195.92 1290.8 198.32C1290.8 200.72 1292.9 202.72 1295.5 202.72C1298.1 202.72 1300.2 200.72 1300.2 198.32C1300.2 195.92 1298.1 194.02 1295.5 194.02Z" fill="#8072C9"/>
<path d="M1670.1 326.82L1590.8 253.52C1589.5 252.32 1587.7 251.62 1585.9 251.62H1473C1471.5 251.62 1470.1 251.12 1469.1 250.12L1404.4 190.42C1403.1 189.22 1401.4 188.52 1399.5 188.52H1321.8V189.72H1399.5C1401 189.72 1402.4 190.32 1403.5 191.32L1468.1 251.02C1469.4 252.22 1471.1 252.92 1473 252.92H1585.9C1587.4 252.92 1588.8 253.42 1589.8 254.42L1670.1 328.62V326.82Z" fill="#8072C9"/>
<path d="M1321.8 184.82C1319.2 184.82 1317.1 186.72 1317.1 189.12C1317.1 191.52 1319.2 193.52 1321.8 193.52C1324.4 193.52 1326.5 191.52 1326.5 189.12C1326.5 186.72 1324.4 184.82 1321.8 184.82Z" fill="#8072C9"/>
<path d="M1670.1 313.62L1594.9 244.22C1593.6 242.92 1591.9 242.32 1590 242.32H1477.2C1475.7 242.32 1474.3 241.72 1473.2 240.82L1408.6 181.02C1407.3 179.82 1405.5 179.12 1403.7 179.12H1303.1V180.42H1403.7C1405.2 180.42 1406.6 180.92 1407.6 181.92L1472.3 241.72C1473.6 242.92 1475.3 243.52 1477.2 243.52H1590C1591.5 243.52 1592.9 244.12 1594 245.02L1670.1 315.42V313.62Z" fill="#8072C9"/>
<path d="M1303.1 175.42C1300.5 175.42 1298.4 177.42 1298.4 179.82C1298.4 182.22 1300.5 184.12 1303.1 184.12C1305.7 184.12 1307.8 182.22 1307.8 179.82C1307.8 177.42 1305.7 175.42 1303.1 175.42Z" fill="#8072C9"/>
</g>
<g opacity="0.15">
<path d="M-120 531.02L-16.3999 626.72C-12.8999 630.02 -8.19983 631.82 -3.19983 631.82H99.1001C104.5 631.82 109.5 633.72 113.3 637.22L169.2 688.82C172.7 692.12 177.3 693.92 182.3 693.92H273.2V695.12H182.3C177 695.12 172 693.22 168.2 689.72L112.3 638.12C108.8 634.82 104.1 633.02 99.1001 633.02H-3.19983C-8.59982 633.02 -13.5999 631.12 -17.2999 627.62L-120 532.72V531.02Z" fill="#8072C9"/>
<path d="M273.2 698.92C275.8 698.92 277.9 696.92 277.9 694.52C277.9 692.12 275.8 690.12 273.2 690.12C270.6 690.12 268.5 692.12 268.5 694.52C268.5 696.92 270.6 698.92 273.2 698.92Z" fill="#8072C9"/>
<path d="M-120 562.32L-32.1998 643.42C-31.0998 644.42 -29.6998 645.02 -28.1998 645.02H84.7001C86.5001 645.02 88.3001 645.62 89.6001 646.82L154.2 706.62C155.3 707.62 156.7 708.12 158.2 708.12H235.8V709.32H158.2C156.3 709.32 154.6 708.72 153.3 707.52L88.6001 647.72C87.6001 646.72 86.2001 646.22 84.7001 646.22H-28.1998C-30.0998 646.22 -31.7999 645.52 -33.0999 644.32L-120 564.02V562.32Z" fill="#8072C9"/>
<path d="M235.8 713.12C238.4 713.12 240.6 711.12 240.6 708.72C240.6 706.32 238.4 704.42 235.8 704.42C233.2 704.42 231.1 706.32 231.1 708.72C231.1 711.12 233.2 713.12 235.8 713.12Z" fill="#8072C9"/>
<path d="M-120 575.42L-36.3 652.82C-35.3 653.82 -33.9 654.32 -32.4 654.32H80.5C82.3 654.32 84.1 655.02 85.4 656.22L150 715.92C151.1 716.92 152.5 717.42 154 717.42H254.6V718.72H154C152.1 718.72 150.4 718.02 149.1 716.82L84.4 657.12C83.4 656.12 82 655.62 80.5 655.62H-32.4C-34.2 655.62 -36.0001 654.92 -37.3 653.72L-120 577.22V575.42Z" fill="#8072C9"/>
<path d="M254.6 722.42C257.2 722.42 259.3 720.52 259.3 718.12C259.3 715.72 257.2 713.72 254.6 713.72C252 713.72 249.9 715.72 249.9 718.12C249.9 720.52 252 722.42 254.6 722.42Z" fill="#8072C9"/>
<path d="M-120 587.82L-39.6998 662.02C-38.6998 663.02 -37.2999 663.52 -35.7999 663.52H77.1001C79.0001 663.52 80.7001 664.22 82.0001 665.42L146.6 725.12C147.7 726.12 149.1 726.72 150.6 726.72H228.3V727.92H150.6C148.7 727.92 147 727.22 145.7 726.02L81.0001 666.32C80.0001 665.32 78.6001 664.82 77.1001 664.82H-35.7999C-37.5999 664.82 -39.3998 664.12 -40.6998 662.92L-120 589.62V587.82Z" fill="#8072C9"/>
<path d="M228.3 731.62C230.9 731.62 233 729.72 233 727.32C233 724.92 230.9 722.92 228.3 722.92C225.7 722.92 223.6 724.92 223.6 727.32C223.6 729.72 225.7 731.62 228.3 731.62Z" fill="#8072C9"/>
<path d="M-120 601.02L-43.8999 671.42C-42.7999 672.32 -41.3999 672.92 -39.8999 672.92H72.9001C74.8001 672.92 76.5002 673.52 77.8002 674.72L142.5 734.52C143.5 735.52 144.9 736.02 146.4 736.02H247V737.32H146.4C144.6 737.32 142.8 736.62 141.5 735.42L76.9001 675.62C75.8001 674.72 74.4001 674.12 72.9001 674.12H-39.8999C-41.7999 674.12 -43.4999 673.52 -44.7999 672.22L-120 602.82V601.02Z" fill="#8072C9"/>
<path d="M247 741.02C249.6 741.02 251.7 739.02 251.7 736.62C251.7 734.22 249.6 732.32 247 732.32C244.4 732.32 242.3 734.22 242.3 736.62C242.3 739.02 244.4 741.02 247 741.02Z" fill="#8072C9"/>
<path d="M-120 383.72L-17.2999 288.82C-13.5999 285.32 -8.59982 283.42 -3.19983 283.42H99.1001C104.1 283.42 108.8 281.62 112.3 278.32L168.2 226.72C172 223.22 177 221.32 182.3 221.32H273.2V222.52H182.3C177.3 222.52 172.7 224.32 169.2 227.62L113.3 279.22C109.5 282.72 104.5 284.62 99.1001 284.62H-3.19983C-8.19983 284.62 -12.8999 286.42 -16.3999 289.72L-120 385.42V383.72Z" fill="#8072C9"/>
<path d="M273.2 217.52C275.8 217.52 277.9 219.52 277.9 221.92C277.9 224.32 275.8 226.32 273.2 226.32C270.6 226.32 268.5 224.32 268.5 221.92C268.5 219.52 270.6 217.52 273.2 217.52Z" fill="#8072C9"/>
<path d="M-120 352.42L-33.0999 272.12C-31.7999 270.92 -30.0998 270.22 -28.1998 270.22H84.7001C86.2001 270.22 87.6001 269.72 88.6001 268.72L153.3 208.92C154.6 207.72 156.3 207.12 158.2 207.12H235.8V208.32H158.2C156.7 208.32 155.3 208.82 154.2 209.82L89.6001 269.62C88.3001 270.82 86.5001 271.42 84.7001 271.42H-28.1998C-29.6998 271.42 -31.0998 272.02 -32.1998 273.02L-120 354.12V352.42Z" fill="#8072C9"/>
<path d="M235.8 203.32C238.4 203.32 240.6 205.32 240.6 207.72C240.6 210.12 238.4 212.02 235.8 212.02C233.2 212.02 231.1 210.12 231.1 207.72C231.1 205.32 233.2 203.32 235.8 203.32Z" fill="#8072C9"/>
<path d="M-120 339.22L-37.3 262.72C-36.0001 261.52 -34.2 260.82 -32.4 260.82H80.5C82 260.82 83.4 260.32 84.4 259.32L149.1 199.62C150.4 198.42 152.1 197.72 154 197.72H254.6V199.02H154C152.5 199.02 151.1 199.52 150 200.52L85.4 260.22C84.1 261.42 82.3 262.12 80.5 262.12H-32.4C-33.9 262.12 -35.3 262.62 -36.3 263.62L-120 340.92V339.22Z" fill="#8072C9"/>
<path d="M254.6 194.02C257.2 194.02 259.3 195.92 259.3 198.32C259.3 200.72 257.2 202.72 254.6 202.72C252 202.72 249.9 200.72 249.9 198.32C249.9 195.92 252 194.02 254.6 194.02Z" fill="#8072C9"/>
<path d="M-120 326.82L-40.6998 253.52C-39.3998 252.32 -37.5999 251.62 -35.7999 251.62H77.1001C78.6001 251.62 80.0001 251.12 81.0001 250.12L145.7 190.42C147 189.22 148.7 188.52 150.6 188.52H228.3V189.72H150.6C149.1 189.72 147.7 190.32 146.6 191.32L82.0001 251.02C80.7001 252.22 79.0001 252.92 77.1001 252.92H-35.7999C-37.2999 252.92 -38.6998 253.42 -39.6998 254.42L-120 328.62V326.82Z" fill="#8072C9"/>
<path d="M228.3 184.82C230.9 184.82 233 186.72 233 189.12C233 191.52 230.9 193.52 228.3 193.52C225.7 193.52 223.6 191.52 223.6 189.12C223.6 186.72 225.7 184.82 228.3 184.82Z" fill="#8072C9"/>
<path d="M-120 313.62L-44.7999 244.22C-43.4999 242.92 -41.7999 242.32 -39.8999 242.32H72.9001C74.4001 242.32 75.8001 241.72 76.9001 240.82L141.5 181.02C142.8 179.82 144.6 179.12 146.4 179.12H247V180.42H146.4C144.9 180.42 143.5 180.92 142.5 181.92L77.8002 241.72C76.5002 242.92 74.8001 243.52 72.9001 243.52H-39.8999C-41.3999 243.52 -42.7999 244.12 -43.8999 245.02L-120 315.42V313.62Z" fill="#8072C9"/>
<path d="M247 175.42C249.6 175.42 251.7 177.42 251.7 179.82C251.7 182.22 249.6 184.12 247 184.12C244.4 184.12 242.3 182.22 242.3 179.82C242.3 177.42 244.4 175.42 247 175.42Z" fill="#8072C9"/>
</g>
<defs>
<linearGradient id="paint0_linear_518_2" x1="0" y1="0" x2="1600" y2="818" gradientUnits="userSpaceOnUse">
<stop stop-color="#395F96"/>
<stop offset="0.51" stop-color="#6CBBAE"/>
<stop offset="1" stop-color="#CF9BB4"/>
</linearGradient>
<linearGradient id="paint1_linear_518_2" x1="0" y1="0" x2="1600" y2="818" gradientUnits="userSpaceOnUse">
<stop stop-color="#395F96"/>
<stop offset="1" stop-color="#CF9BB4"/>
</linearGradient>
</defs>
</svg>
